<?xml version="1.0"?>
<svg width="3859" height="2349" xmlns="http://www.w3.org/2000/svg" xmlnsSvg="http://www.w3.org/2000/svg" preserveAspectRatio="xMidYMid meet" version="1.0">
 <g class="layer">
  <title>Layer 1</title>
  <rect fill="#ffffff" height="1070" id="svg_13" stroke="#000000" stroke-width="0" transform="matrix(1 0 0 1 0 0) rotate(32.1141 2676.83 853.893) matrix(0.960584 -0.277991 0.277991 0.960584 -190.791 362.196)" width="1955.61" x="1640.1" y="734.49"/>
  <rect fill="#ffffff" height="1070" id="svg_12" stroke="#000000" stroke-width="0" transform="matrix(1 0 0 1 0 0) rotate(32.1141 1191.83 1498.89) matrix(0.960584 -0.277991 0.277991 0.960584 -190.791 362.196)" width="1955.61" x="34.33" y="941.25"/>
  <rect fill="#ffffff" height="1070" id="svg_11" stroke="#000000" stroke-width="0" transform="matrix(1 0 0 1 0 0) matrix(0.960584 -0.277991 0.277991 0.960584 -190.791 362.196)" width="1955.61" x="1473.18" y="1347.24"/>
  <rect fill="#ffffff" height="1070" id="svg_10" stroke="#000000" stroke-width="0" transform="matrix(1 0 0 1 0 0) matrix(0.960584 -0.277991 0.277991 0.960584 -190.791 362.196)" width="1955.61" x="204.03" y="318.89"/>
  <rect fill="#ffffff" height="1070" id="svg_9" stroke="#000000" stroke-width="0" width="3703.33" x="79.33" y="642.67"/>
  <g fill="#000000" id="svg_1" transform="translate(0 2349) matrix(0.1 0 0 -0.1 0 0)">
   <path d="m19120,22980c-47,-4 -135,-20 -197,-34c-185,-43 -17127,-4883 -17283,-4937c-300,-105 -554,-278 -757,-514c-222,-257 -368,-573 -413,-894c-19,-133 -20,-248 -20,-4851c0,-4603 1,-4718 20,-4851c33,-236 130,-492 264,-698c210,-324 526,-575 886,-704c157,-57 17119,-4904 17290,-4941c272,-60 518,-60 780,0c193,44 17076,4868 17255,4930c656,229 1105,785 1189,1469c14,118 16,589 16,4796c0,5051 3,4780 -51,4999c-50,200 -136,397 -248,563c-224,335 -524,566 -906,700c-162,57 -17158,4909 -17311,4942c-125,28 -371,39 -514,25zm357,-420c43,-6 101,-15 128,-21c98,-22 17131,-4890 17215,-4920c218,-80 369,-178 530,-345c113,-118 172,-198 233,-319c63,-126 95,-220 123,-363l24,-122l0,-4720l0,-4720l-24,-122c-13,-68 -36,-157 -51,-198c-132,-367 -413,-660 -771,-805c-96,-39 -17137,-4915 -17294,-4948c-131,-28 -433,-30 -565,-4c-85,18 -17127,4884 -17247,4926c-97,34 -227,98 -317,158c-104,71 -279,241 -350,343c-106,152 -184,336 -222,525l-24,120l0,4725l0,4725l23,115c56,279 178,508 376,706c139,139 285,234 471,307c112,44 17145,4912 17275,4937c52,10 111,20 130,23c73,8 262,7 337,-3z" id="svg_2"/>
   <path d="m19165,22259c-33,-5 -91,-16 -130,-25c-106,-23 -17099,-4882 -17169,-4908c-142,-54 -270,-133 -378,-234c-103,-96 -227,-293 -267,-422c-54,-176 -51,149 -51,-4920c0,-4171 2,-4687 15,-4766c22,-126 49,-206 101,-304c135,-251 318,-407 609,-519c135,-51 17098,-4889 17225,-4912c136,-25 283,-21 420,10c181,42 17110,4882 17195,4916c134,54 210,98 306,174c101,80 199,201 264,324c59,111 82,179 105,315c20,112 20,196 20,4762c0,4566 0,4650 -20,4762c-23,135 -45,203 -102,309c-118,222 -283,376 -511,476c-136,60 -17188,4935 -17341,4958c-112,16 -197,17 -291,4zm-1675,-4583c698,-703 1270,-1281 1270,-1285c0,-3 -282,-285 -626,-625l-626,-619l-589,589l-589,589l-2543,-2543l-2542,-2542l-1395,2c-1148,3 -1395,5 -1395,16c0,22 7728,7701 7747,7699c9,-1 589,-577 1288,-1281zm10879,-4740c3300,-3310 6001,-6024 6001,-6032c0,-12 -194,-14 -1287,-15l-1288,0l-4717,4723l-4717,4723l-885,-885l-884,-885l1679,-1649c924,-906 1678,-1653 1676,-1660c-3,-8 -349,-12 -1314,-14l-1310,-2l-1009,1018l-1009,1018l-62,-56c-34,-30 -499,-488 -1032,-1017l-969,-963l-1317,0c-1288,0 -1316,0 -1313,19c4,27 7719,7701 7739,7698c9,-1 2717,-2710 6018,-6021zm-11489,-3303c12,-32 197,-526 410,-1098c214,-572 393,-1052 399,-1067l11,-28l-93,0l-93,0l-99,268c-54,147 -111,302 -127,345l-30,77l-485,-2l-486,-3l-126,-342l-126,-343l-89,0c-82,0 -88,1 -83,19c2,11 193,517 423,1125l418,1106l77,0l78,0l21,-57zm2025,33c223,-63 378,-214 426,-416c18,-76 16,-241 -5,-319c-37,-143 -137,-277 -262,-353c-58,-36 -195,-88 -230,-88c-11,0 2,-14 32,-35c63,-45 130,-132 188,-245c38,-72 343,-710 363,-757c4,-10 -18,-13 -89,-13l-94,0l-172,373c-95,204 -189,399 -210,432c-49,76 -129,148 -190,171c-36,13 -90,18 -234,22l-188,4l0,-501l0,-501l-80,0l-80,0l0,1126l0,1126l383,-4c321,-4 392,-7 442,-22zm1526,-866c225,-487 425,-925 445,-975c19,-49 38,-99 42,-109c7,-15 15,1 39,70c18,49 218,496 447,994l415,905l75,3l76,3l0,-1126l0,-1125l-81,0l-81,0l5,913c3,501 8,927 12,945c13,58 -9,33 -44,-50c-19,-46 -213,-470 -431,-943l-397,-860l-32,0l-32,0l-406,870c-223,479 -417,905 -432,947l-26,78l3,-950l4,-950l-86,0l-86,0l0,1125l0,1126l81,-3l81,-3l409,-885zm3504,-2160c0,-13 -522,-15 -4629,-18c-2787,-1 -4634,2 -4639,7c-5,5 -6,14 -3,20c5,8 1309,10 4639,9c4110,-3 4632,-5 4632,-18zm-2505,-740c36,-6 86,-16 113,-22l47,-12l0,-54l0,-54l-32,7c-18,4 -37,11 -43,15c-30,22 -299,40 -318,21c-6,-6 -19,-11 -29,-11c-21,0 -85,-34 -116,-63c-12,-12 -34,-41 -47,-65c-21,-38 -25,-58 -25,-132c0,-83 2,-90 36,-141c34,-52 65,-79 164,-143c69,-44 171,-106 177,-106c11,0 123,-82 170,-124c91,-82 123,-150 123,-267c0,-181 -89,-302 -269,-367c-34,-12 -81,-16 -176,-17c-136,0 -190,9 -315,56c-29,11 -30,14 -30,71c0,33 3,58 8,56c147,-70 155,-73 223,-87c63,-13 197,-13 205,0c3,5 16,9 30,9c40,0 111,39 152,84c40,43 72,124 72,181c0,74 -50,167 -119,223c-38,30 -208,142 -217,142c-12,0 -193,126 -227,159c-93,89 -137,212 -116,326c7,33 16,64 20,70c5,5 9,15 9,23c0,20 63,99 106,133c101,80 263,114 424,89zm-4170,-40c65,-24 135,-60 161,-83c45,-38 88,-110 104,-172c19,-72 18,-241 -2,-300c-50,-149 -145,-243 -305,-300c-29,-11 -95,-17 -203,-21c-88,-3 -170,-7 -182,-10l-23,-4l0,-290l0,-290l-55,0l-55,0l0,738c0,406 3,742 8,746c12,14 513,0 552,-14zm1158,-2c6,-13 31,-79 57,-148c26,-69 50,-134 55,-145c4,-11 13,-36 20,-55c15,-42 29,-79 41,-102c5,-10 9,-25 9,-33c0,-8 5,-24 10,-35c6,-11 15,-29 20,-40c6,-11 10,-27 10,-35c0,-8 4,-23 9,-33c5,-9 19,-44 32,-77c12,-33 28,-73 34,-90c7,-16 23,-57 35,-90c12,-33 26,-69 30,-80c4,-11 13,-36 20,-55c7,-19 16,-44 20,-55c4,-11 13,-36 20,-55c7,-19 16,-44 21,-55c5,-11 18,-47 30,-80c11,-33 32,-88 45,-122c13,-34 24,-66 24,-72c0,-7 -22,-11 -54,-11l-54,0l-22,58c-12,31 -26,66 -30,77c-5,11 -23,61 -40,110c-17,50 -34,97 -37,105c-4,8 -14,35 -23,60l-16,45l-320,2c-175,2 -324,0 -330,-5c-6,-4 -27,-54 -48,-112c-20,-58 -41,-114 -46,-125c-5,-11 -14,-38 -21,-60c-7,-22 -16,-44 -20,-50c-3,-5 -12,-31 -20,-57l-13,-48l-59,0c-52,0 -58,2 -52,18c4,9 13,37 22,62c8,25 19,49 24,55c5,5 9,17 9,27c0,10 4,26 9,36c5,9 14,31 21,47c7,17 16,38 21,47c5,10 9,25 9,33c0,8 4,23 9,33c18,36 60,145 124,322c11,30 23,59 28,64c5,6 9,18 9,28c0,10 4,26 9,36c5,9 19,44 31,77c12,33 27,71 32,85c14,32 20,47 58,150c39,104 59,157 73,190c15,38 24,62 37,100c26,76 30,80 80,80c38,0 49,-4 58,-22zm1384,5c6,-7 21,-13 33,-13c11,0 31,-9 45,-20c14,-11 30,-20 37,-20c6,0 31,-22 56,-50c114,-127 135,-304 54,-468c-32,-65 -98,-135 -153,-161c-16,-7 -37,-17 -46,-22c-10,-5 -26,-9 -37,-9c-10,0 -24,-7 -31,-15c-10,-12 -4,-24 38,-70c49,-53 86,-122 220,-405c22,-47 54,-114 71,-149c17,-36 31,-66 31,-68c0,-2 -26,-3 -58,-3c-51,0 -60,3 -69,23c-52,112 -78,168 -93,202c-56,128 -153,315 -180,348c-57,68 -96,81 -245,82l-130,0l-3,-327l-2,-328l-55,0l-55,0l0,738c0,406 3,742 8,746c13,14 549,3 564,-11zm726,-730l2,-743l-55,0l-55,0l0,738c0,406 3,742 7,746c4,4 28,6 53,4l45,-3l3,-742z" id="svg_3"/>
   <path d="m16766,9445c-4,-22 -96,-283 -203,-580c-108,-297 -198,-548 -201,-557c-4,-17 20,-18 412,-18c229,0 416,4 416,8c0,4 -81,231 -181,503c-100,272 -193,537 -208,589l-28,95l-7,-40z" id="svg_4"/>
   <path d="m18250,9060l0,-470l219,0c326,0 439,29 560,145c98,94 141,200 141,351c0,234 -140,394 -380,433c-36,6 -172,11 -302,11l-238,0l0,-470z" id="svg_5"/>
   <path d="m16830,5765c0,-3 -1,-157 -1,-342l0,-338l117,-3c71,-2 121,1 128,8c5,5 33,10 61,10c66,0 132,33 197,97c57,56 78,93 78,140c0,18 5,33 10,33c6,0 10,35 10,85c0,50 -4,85 -10,85c-5,0 -10,14 -10,30c0,17 -4,30 -10,30c-5,0 -10,8 -10,18c0,18 -78,97 -117,120c-13,6 -34,12 -48,12c-14,0 -25,5 -25,10c0,10 -370,15 -370,5z" id="svg_6"/>
   <path d="m18348,5681c-10,-19 -18,-42 -18,-52c0,-10 -4,-21 -10,-24c-5,-3 -10,-15 -10,-26c0,-10 -4,-19 -10,-19c-5,0 -10,-13 -10,-30c0,-16 -4,-30 -10,-30c-5,0 -10,-13 -10,-29c0,-17 -4,-33 -10,-36c-5,-3 -10,-17 -10,-29c0,-13 -7,-29 -15,-36c-9,-7 -13,-15 -10,-18c3,-3 -2,-13 -11,-23c-9,-10 -14,-25 -11,-33c3,-8 -1,-20 -9,-26c-8,-7 -14,-25 -14,-41c0,-16 -4,-29 -10,-29c-5,0 -10,-11 -10,-25c0,-13 -9,-40 -20,-60c-11,-20 -20,-44 -20,-55c0,-10 -4,-22 -10,-25c-5,-3 -10,-17 -10,-30c0,-13 -4,-27 -10,-30c-33,-21 12,-25 260,-25l270,0l0,25c0,13 -9,40 -20,60c-11,20 -20,47 -20,60c0,14 -4,25 -10,25c-5,0 -10,14 -10,30c0,17 -4,30 -10,30c-5,0 -10,9 -10,19c0,11 -4,23 -10,26c-5,3 -10,17 -10,30c0,13 -4,27 -10,30c-5,3 -10,17 -10,29c0,13 -7,29 -15,36c-9,7 -13,21 -10,30c3,9 -1,23 -10,30c-8,7 -13,16 -10,20c3,4 -2,13 -10,20c-8,7 -15,25 -15,41c0,16 -4,29 -10,29c-5,0 -10,13 -10,29c0,17 -4,33 -10,36c-5,3 -10,16 -10,29c0,12 -4,26 -9,32c-5,5 -11,23 -13,39l-3,30l-17,-34z" id="svg_7"/>
   <path d="m19355,5757c-3,-7 -4,-143 -3,-302l3,-290l179,-3c113,-1 183,1 190,8c5,5 22,10 36,10c14,0 30,8 38,20c7,11 19,20 27,20c20,0 75,53 75,71c0,8 9,21 20,29c12,8 20,26 20,42c0,15 5,30 10,33c6,3 10,42 10,86c0,46 -4,79 -10,79c-5,0 -10,14 -10,30c0,17 -4,30 -10,30c-5,0 -10,8 -10,17c0,19 -48,73 -65,73c-7,0 -20,9 -30,20c-10,11 -31,20 -47,20c-15,0 -28,5 -28,10c0,16 -389,13 -395,-3z" id="svg_8"/>
  </g>
 </g>
</svg>