<?xml version="1.0" standalone="no"?>
<!DOCTYPE svg PUBLIC "-//W3C//DTD SVG 20010904//EN"
 "http://www.w3.org/TR/2001/REC-SVG-20010904/DTD/svg10.dtd">
<svg version="1.0" xmlns="http://www.w3.org/2000/svg"
 width="4626.000000pt" height="3507.000000pt" viewBox="0 0 4626.000000 3507.000000"
 preserveAspectRatio="xMidYMid meet">
<metadata>
Created by potrace 1.16, written by Peter Selinger 2001-2019
</metadata>
<g transform="translate(0.000000,3507.000000) scale(0.100000,-0.100000)"
fill="#000000" stroke="none">
<path d="M0 17535 l0 -17535 23130 0 23130 0 0 17535 0 17535 -23130 0 -23130
0 0 -17535z m22840 12735 c93 -7 188 -21 265 -39 199 -47 17109 -4878 17265
-4932 311 -108 564 -278 777 -522 166 -189 277 -384 359 -633 48 -147 69 -255
84 -429 13 -164 13 -9266 0 -9430 -15 -174 -36 -282 -84 -429 -57 -173 -116
-297 -208 -436 -220 -334 -527 -575 -908 -713 -156 -56 -17085 -4895 -17274
-4937 -259 -58 -541 -60 -797 -4 -161 35 -17124 4881 -17294 4941 -313 110
-590 307 -808 575 -194 238 -333 560 -377 873 -20 144 -20 176 -20 4845 0
4669 0 4701 20 4845 35 245 134 513 265 716 220 340 542 596 919 731 136 49
17152 4908 17314 4944 63 14 165 29 226 34 61 4 116 8 121 8 6 1 75 -3 155 -8z"/>
<path d="M22505 30230 c-144 -17 267 100 -7980 -2255 -1996 -570 -4915 -1403
-6485 -1851 -1570 -448 -2913 -836 -2985 -861 -305 -107 -557 -278 -758 -511
-231 -268 -370 -569 -424 -917 -17 -115 -18 -309 -18 -4835 0 -4501 1 -4720
18 -4835 52 -344 196 -656 422 -917 209 -240 459 -407 775 -517 183 -63 17036
-4878 17248 -4928 157 -36 157 -36 392 -37 231 0 238 1 375 33 200 47 17123
4883 17280 4938 146 51 190 72 320 149 129 76 162 100 259 184 319 277 537
674 596 1090 19 132 20 243 20 4840 0 4607 -1 4708 -20 4840 -38 268 -128 501
-278 725 -218 326 -515 560 -876 690 -106 38 -4193 1208 -10476 3000 -624 178
-2397 684 -3940 1125 -1543 441 -2857 813 -2920 826 -93 21 -149 26 -295 29
-99 2 -211 0 -250 -5z m485 -439 c52 -11 3947 -1120 8655 -2466 6188 -1768
8589 -2459 8666 -2491 182 -77 321 -174 463 -325 184 -195 292 -409 341 -674
l25 -136 0 -4702 0 -4703 -26 -134 c-36 -188 -96 -337 -202 -500 -68 -106
-257 -297 -366 -370 -93 -62 -247 -136 -361 -174 -119 -38 -17090 -4886
-17160 -4901 -184 -40 -394 -44 -579 -10 -96 17 -17115 4876 -17256 4927 -99
35 -242 105 -308 150 -303 205 -504 505 -580 866 l-27 127 0 4725 0 4725 27
126 c67 320 231 589 482 791 115 92 259 174 395 222 102 37 17132 4903 17224
4922 41 8 103 19 138 24 97 13 339 3 449 -19z"/>
<path d="M22510 29500 c-137 -26 -17167 -4894 -17269 -4937 -256 -105 -436
-272 -558 -518 -48 -96 -66 -151 -90 -270 -17 -86 -18 -311 -18 -4775 0 -4464
1 -4689 18 -4775 24 -119 42 -174 90 -270 126 -253 318 -428 582 -529 39 -15
79 -31 90 -36 11 -5 754 -219 1650 -474 897 -256 3453 -985 5680 -1621 8853
-2528 9693 -2767 9775 -2786 125 -29 303 -35 420 -15 101 18 337 85 7370 2093
2494 712 5710 1629 7145 2039 1436 409 2648 758 2695 776 257 96 438 228 561
410 79 116 138 255 165 385 l24 121 -3 4714 -2 4713 -22 90 c-31 124 -123 307
-210 415 -126 156 -310 279 -523 348 -229 74 -17114 4893 -17194 4907 -114 19
-256 18 -376 -5z m-2038 -4147 c1276 -1282 1683 -1693 1686 -1706 1 -7 -277
-291 -618 -632 l-620 -620 -590 590 c-324 324 -593 585 -597 581 -4 -4 -1150
-1148 -2546 -2542 l-2538 -2534 -1382 0 c-874 0 -1388 4 -1397 10 -12 8 54 78
325 347 561 558 1914 1902 2840 2824 3382 3364 4566 4538 4576 4539 3 0 391
-386 861 -857z m6954 -805 c912 -915 3243 -3251 5179 -5193 1935 -1941 3890
-3902 4344 -4358 455 -455 827 -834 829 -842 3 -13 -145 -15 -1285 -15 l-1288
0 -4714 4721 c-2592 2596 -4717 4719 -4721 4717 -4 -2 -405 -398 -891 -881
l-884 -878 135 -131 c252 -246 2884 -2830 3060 -3005 140 -139 172 -175 160
-183 -10 -6 -490 -10 -1315 -10 l-1300 0 -366 368 c-201 202 -656 661 -1013
1021 l-647 655 -417 -415 c-229 -228 -693 -688 -1030 -1022 l-613 -607 -1312
2 c-1158 3 -1312 5 -1313 18 -1 8 431 445 960 970 1742 1731 4145 4122 5757
5728 554 551 1011 1002 1016 1002 5 0 756 -748 1669 -1662z m-6747 -8712 c227
-607 415 -1114 418 -1125 5 -20 2 -21 -83 -21 l-89 0 -54 148 c-29 81 -87 238
-129 350 l-75 203 -484 -3 -485 -3 -126 -345 -127 -345 -87 -3 c-49 -1 -88 0
-88 3 0 9 830 2206 842 2228 7 14 22 17 82 17 l72 0 413 -1104z m1631 1080
c220 -56 378 -210 426 -413 24 -101 15 -286 -18 -375 -34 -91 -78 -156 -152
-225 -75 -70 -143 -108 -256 -143 l-85 -27 30 -16 c45 -23 126 -113 173 -192
34 -59 205 -412 363 -752 l38 -83 -92 0 -92 0 -129 283 c-268 585 -294 626
-432 689 -44 21 -67 23 -241 26 l-193 4 0 -501 0 -501 -80 0 -80 0 0 1126 0
1126 378 -5 c305 -4 389 -8 442 -21z m1158 -63 c547 -1181 800 -1733 824
-1798 43 -115 43 -115 63 -59 47 130 110 270 480 1077 l398 867 74 0 73 0 0
-1125 0 -1125 -81 0 -81 0 6 893 c3 490 8 916 12 945 3 29 2 52 -3 52 -5 0
-28 -44 -51 -97 -23 -54 -217 -478 -431 -943 -375 -813 -391 -845 -418 -848
-29 -3 -30 0 -300 580 -501 1075 -551 1183 -574 1253 l-24 70 -3 -952 -2 -953
-80 0 -80 0 0 1118 c0 615 3 1122 7 1125 3 4 39 7 78 7 l72 0 41 -87z m3875
-2958 c-4 -12 -9273 -19 -9273 -7 0 5 3 12 7 15 11 12 9268 3 9266 -8z m-3636
-581 c17 -5 23 -13 23 -34 l0 -28 -47 14 c-133 40 -243 -10 -243 -112 0 -66
20 -94 100 -144 185 -116 220 -154 220 -239 0 -81 -48 -145 -126 -171 -45 -15
-187 -8 -226 10 -21 10 -28 20 -28 42 0 28 1 28 28 14 93 -48 202 -45 261 9
33 31 36 38 36 89 0 47 -4 59 -30 86 -16 18 -68 55 -114 83 -146 89 -191 151
-175 238 23 124 158 184 321 143z m-2004 -28 c23 -11 47 -35 63 -62 23 -39 26
-53 23 -122 -3 -65 -9 -85 -32 -120 -41 -63 -107 -92 -223 -99 l-94 -6 0 -138
0 -139 -25 0 -25 0 0 356 0 356 138 -4 c109 -2 145 -7 175 -22z m639 -326 c70
-189 128 -348 128 -353 0 -4 -12 -7 -26 -5 -24 3 -31 14 -66 111 l-40 107
-157 0 -156 0 -39 -110 c-37 -105 -39 -110 -67 -110 l-28 0 28 78 c30 79 210
555 230 605 9 23 16 28 38 25 25 -3 33 -20 155 -348z m568 330 c22 -11 52 -39
67 -61 22 -34 27 -52 27 -105 0 -55 -5 -70 -30 -106 -17 -24 -49 -52 -76 -66
l-47 -24 29 -37 c16 -20 56 -94 89 -164 l60 -128 -30 3 c-28 3 -34 12 -87 126
-31 67 -70 135 -85 151 -29 31 -84 46 -143 39 l-29 -3 -3 -157 -3 -158 -24 0
-25 0 0 355 0 355 135 0 c117 0 141 -3 175 -20z m310 -335 l0 -355 -25 0 -25
0 0 355 0 355 25 0 25 0 0 -355z"/>
<path d="M20176 16695 c-4 -22 -96 -283 -203 -580 -108 -297 -198 -548 -201
-557 -4 -17 20 -18 412 -18 229 0 416 4 416 8 0 4 -81 231 -181 503 -100 272
-193 537 -208 589 l-28 95 -7 -40z"/>
<path d="M21660 16310 l0 -470 219 0 c326 0 439 29 560 145 98 94 141 200 141
351 0 234 -140 394 -380 433 -36 6 -172 11 -302 11 l-238 0 0 -470z"/>
<path d="M21450 13094 l0 -167 84 6 c47 3 98 13 114 21 118 61 122 244 6 292
-20 8 -69 14 -119 14 l-85 0 0 -166z"/>
<path d="M22145 13128 c-21 -57 -50 -138 -66 -180 l-28 -78 129 0 c72 0 130 3
130 8 -1 4 -29 85 -64 180 l-63 173 -38 -103z"/>
<path d="M22660 13115 l0 -145 86 0 c98 0 142 16 176 63 29 41 34 112 11 156
-28 54 -72 71 -180 71 l-93 0 0 -145z"/>
</g>
</svg>
