<?xml version="1.0"?>
<svg width="3879" height="2386" xmlns="http://www.w3.org/2000/svg" xmlnsSvg="http://www.w3.org/2000/svg" preserveAspectRatio="xMidYMid meet" version="1.0">
 <g class="layer">
  <title>Layer 1</title>
  <path d="m95.99,619.8l1841.37,-535.64l184.81,635.31l-1841.37,535.64l-184.81,-635.31z" fill="#ffffff" id="svg_15" stroke="#000000" stroke-width="0" transform="matrix(1 0 0 1 0 0)"/>
  <path d="m1943.48,80.04l1835.52,541.51l-323.73,1097.34l-1835.52,-541.51l323.73,-1097.34z" fill="#ffffff" id="svg_13" stroke="#000000" stroke-width="0" transform="matrix(1 0 0 1 0 0)"/>
  <path d="m253.7,1190.57l1835.52,541.5l-163.58,554.47l-1835.52,-541.5l163.58,-554.47z" fill="#ffffff" id="svg_12" stroke="#000000" stroke-width="0"/>
  <path d="m1832.2,1536.8l1913.73,0l0,488.98l-1913.73,0l0,-488.98z" fill="#ffffff" id="svg_11" stroke="#000000" stroke-width="0" transform="matrix(1 0 0 1 0 0) rotate(-16.3004 2789.06 1781.29)"/>
  <rect fill="#ffffff" height="255" id="svg_10" stroke="#000000" width="371" x="1645" y="1859.5"/>
  <path d="m83.02,660.91l3717.96,0l0,1043.17l-3717.96,0l0,-1043.17z" fill="#ffffff" id="svg_9" stroke="#000000" stroke-width="0" transform="matrix(1 0 0 1 0 0)"/>
  <g fill="#000000" id="svg_1" transform="translate(0 2386) matrix(0.1 0 0 -0.1 0 0)">
   <path d="m19180,23250c-47,-4 -135,-20 -197,-34c-185,-43 -17127,-4883 -17283,-4937c-300,-105 -554,-278 -757,-514c-222,-257 -368,-573 -413,-894c-19,-133 -20,-248 -20,-4851c0,-4603 1,-4718 20,-4851c33,-236 130,-492 264,-698c210,-324 526,-575 886,-704c157,-57 17119,-4904 17290,-4941c272,-60 518,-60 780,0c193,44 17076,4868 17255,4930c656,229 1105,785 1189,1469c14,118 16,589 16,4796c0,5051 3,4780 -51,4999c-50,200 -136,397 -248,563c-224,335 -524,566 -906,700c-162,57 -17158,4909 -17311,4942c-125,28 -371,39 -514,25zm357,-420c43,-6 101,-15 128,-21c98,-22 17131,-4890 17215,-4920c218,-80 369,-178 530,-345c113,-118 172,-198 233,-319c63,-126 95,-220 123,-363l24,-122l0,-4720l0,-4720l-24,-122c-13,-68 -36,-157 -51,-198c-132,-367 -413,-660 -771,-805c-96,-39 -17137,-4915 -17294,-4948c-131,-28 -433,-30 -565,-4c-85,18 -17127,4884 -17247,4926c-97,34 -227,98 -317,158c-104,71 -279,241 -350,343c-106,152 -184,336 -222,525l-24,120l0,4725l0,4725l23,115c56,279 178,508 376,706c139,139 285,234 471,307c112,44 17145,4912 17275,4937c52,10 111,20 130,23c73,8 262,7 337,-3z" id="svg_2"/>
   <path d="m19225,22529c-33,-5 -91,-16 -130,-25c-106,-23 -17099,-4882 -17169,-4908c-142,-54 -270,-133 -378,-234c-103,-96 -227,-293 -267,-422c-54,-176 -51,149 -51,-4920c0,-4171 2,-4687 15,-4766c22,-126 49,-206 101,-304c135,-251 318,-407 609,-519c135,-51 17098,-4889 17225,-4912c136,-25 283,-21 420,10c181,42 17110,4882 17195,4916c134,54 210,98 306,174c101,80 199,201 264,324c59,111 82,179 105,315c20,112 20,196 20,4762c0,4566 0,4650 -20,4762c-23,135 -45,203 -102,309c-118,222 -283,376 -511,476c-136,60 -17188,4935 -17341,4958c-112,16 -197,17 -291,4zm-1675,-4583c698,-703 1270,-1281 1270,-1285c0,-3 -282,-285 -626,-625l-626,-619l-589,589l-589,589l-2543,-2543l-2542,-2542l-1395,2c-1148,3 -1395,5 -1395,16c0,22 7728,7701 7747,7699c9,-1 589,-577 1288,-1281zm10879,-4740c3300,-3310 6001,-6024 6001,-6032c0,-12 -194,-14 -1287,-15l-1288,0l-4717,4723l-4717,4723l-885,-885l-884,-885l1679,-1649c924,-906 1678,-1653 1676,-1660c-3,-8 -349,-12 -1314,-14l-1310,-2l-1009,1018l-1009,1018l-62,-56c-34,-30 -499,-488 -1032,-1017l-969,-963l-1317,0c-1288,0 -1316,0 -1313,19c4,27 7719,7701 7739,7698c9,-1 2717,-2710 6018,-6021zm-11489,-3303c12,-32 197,-526 410,-1098c214,-572 393,-1052 399,-1067l11,-28l-93,0l-93,0l-99,268c-54,147 -111,302 -127,345l-30,77l-485,-2l-486,-3l-126,-342l-126,-343l-89,0c-82,0 -88,1 -83,19c2,11 193,517 423,1125l418,1106l77,0l78,0l21,-57zm2025,33c223,-63 378,-214 426,-416c18,-76 16,-241 -5,-319c-37,-143 -137,-277 -262,-353c-58,-36 -195,-88 -230,-88c-11,0 2,-14 32,-35c63,-45 130,-132 188,-245c38,-72 343,-710 363,-757c4,-10 -18,-13 -89,-13l-94,0l-172,373c-95,204 -189,399 -210,432c-49,76 -129,148 -190,171c-36,13 -90,18 -234,22l-188,4l0,-501l0,-501l-80,0l-80,0l0,1126l0,1126l383,-4c321,-4 392,-7 442,-22zm1526,-866c225,-487 425,-925 445,-975c19,-49 38,-99 42,-109c7,-15 15,1 39,70c18,49 218,496 447,994l415,905l75,3l76,3l0,-1126l0,-1125l-81,0l-81,0l5,913c3,501 8,927 12,945c13,58 -9,33 -44,-50c-19,-46 -213,-470 -431,-943l-397,-860l-32,0l-32,0l-406,870c-223,479 -417,905 -432,947l-26,78l3,-950l4,-950l-86,0l-86,0l0,1125l0,1126l81,-3l81,-3l409,-885zm3504,-2160c0,-13 -522,-15 -4629,-18c-2787,-1 -4634,2 -4639,7c-5,5 -6,14 -3,20c5,8 1309,10 4639,9c4110,-3 4632,-5 4632,-18zm-3632,-575c10,-4 17,-18 17,-35l0,-27l-52,14c-60,16 -133,11 -177,-12c-63,-32 -82,-129 -35,-184c14,-17 60,-52 102,-77c160,-98 192,-136 192,-226c0,-150 -172,-228 -352,-159c-22,8 -28,17 -28,40l0,30l48,-20c31,-14 69,-21 112,-22c107,0 162,42 164,127c1,62 -22,89 -149,171c-130,85 -163,122 -171,191c-9,84 40,156 132,190c39,14 158,14 197,-1zm-2021,-22c31,-14 56,-35 74,-63c25,-37 28,-52 28,-114c0,-152 -79,-225 -251,-234l-93,-5l0,-138l0,-139l-30,0l-30,0l0,361l0,362l128,-5c100,-4 137,-9 174,-25zm639,-298c66,-176 126,-337 134,-357l15,-38l-33,0c-32,0 -32,1 -71,110l-40,110l-154,-2l-154,-3l-24,-65c-60,-161 -53,-150 -85,-150c-16,0 -29,2 -29,4c0,2 59,158 130,347c72,189 132,350 135,357c3,8 16,12 31,10c25,-3 33,-21 145,-323zm529,314c183,-39 202,-286 29,-364l-40,-18l25,-26c21,-23 123,-215 147,-277c8,-22 6,-24 -21,-24c-28,0 -33,7 -93,133c-77,161 -93,177 -183,177l-64,0l0,-155l0,-155l-30,0l-30,0l0,360l0,360l105,0c57,0 127,-5 155,-11zm368,-351l2,-358l-30,0l-30,0l0,361l0,360l28,-3l27,-3l3,-357z" id="svg_3"/>
   <path d="m16826,9715c-4,-22 -96,-283 -203,-580c-108,-297 -198,-548 -201,-557c-4,-17 20,-18 412,-18c229,0 416,4 416,8c0,4 -81,231 -181,503c-100,272 -193,537 -208,589l-28,95l-7,-40z" id="svg_4"/>
   <path d="m18310,9330l0,-470l219,0c326,0 439,29 560,145c98,94 141,200 141,351c0,234 -140,394 -380,433c-36,6 -172,11 -302,11l-238,0l0,-470z" id="svg_5"/>
   <path d="m18100,6114l0,-167l84,6c47,3 98,13 114,21c118,61 122,244 6,292c-20,8 -69,14 -119,14l-85,0l0,-166z" id="svg_6"/>
   <path d="m18795,6148c-21,-57 -50,-138 -66,-180l-28,-78l129,0c72,0 130,3 130,8c-1,4 -29,85 -64,180l-63,173l-38,-103z" id="svg_7"/>
   <path d="m19310,6135l0,-145l86,0c98,0 142,16 176,63c29,41 34,112 11,156c-28,54 -72,71 -180,71l-93,0l0,-145z" id="svg_8"/>
  </g>
 </g>
</svg>